<!-- Generated by IcoMoon.io -->
<svg version="1.1" xmlns="http://www.w3.org/2000/svg" width="12" height="12" viewBox="0 0 12 12">
<title>spinner2</title>
<path d="M12 6c-0.015-0.784-0.185-1.565-0.499-2.279-0.313-0.715-0.767-1.362-1.325-1.897s-1.218-0.959-1.933-1.238c-0.715-0.28-1.484-0.414-2.243-0.398-0.759 0.015-1.516 0.18-2.207 0.485-0.692 0.303-1.319 0.744-1.837 1.284s-0.928 1.18-1.197 1.873c-0.271 0.692-0.4 1.436-0.384 2.171 0.015 0.735 0.175 1.467 0.47 2.135s0.72 1.275 1.243 1.776c0.523 0.501 1.142 0.897 1.812 1.157 0.669 0.261 1.388 0.386 2.099 0.369 0.711-0.015 1.418-0.171 2.063-0.456s1.232-0.697 1.715-1.203c0.484-0.506 0.865-1.104 1.116-1.751 0.153-0.392 0.256-0.802 0.311-1.216 0.015 0.001 0.029 0.001 0.044 0.001 0.414 0 0.75-0.336 0.75-0.75 0-0.021-0.001-0.042-0.003-0.062h0.003zM10.808 7.992c-0.275 0.623-0.674 1.188-1.162 1.654s-1.066 0.834-1.69 1.076c-0.624 0.242-1.292 0.357-1.956 0.341s-1.319-0.161-1.92-0.427c-0.601-0.266-1.145-0.65-1.594-1.122s-0.803-1.028-1.035-1.63c-0.233-0.601-0.343-1.245-0.327-1.884s0.156-1.27 0.413-1.848c0.256-0.578 0.627-1.101 1.081-1.533s0.991-0.772 1.569-0.994c0.578-0.223 1.197-0.328 1.812-0.312s1.221 0.151 1.776 0.399c0.555 0.247 1.058 0.604 1.472 1.040s0.741 0.953 0.954 1.508c0.214 0.555 0.314 1.149 0.298 1.74h0.003c-0.002 0.021-0.003 0.041-0.003 0.062 0 0.387 0.293 0.705 0.669 0.746-0.073 0.408-0.194 0.806-0.361 1.183z"></path>
</svg>
