<!-- Generated by IcoMoon.io -->
<svg version="1.1" xmlns="http://www.w3.org/2000/svg" width="12" height="12" viewBox="0 0 12 12">
<title>spinner5</title>
<path d="M4.875 10.875c0-0.621 0.504-1.125 1.125-1.125s1.125 0.504 1.125 1.125c0 0.621-0.504 1.125-1.125 1.125s-1.125-0.504-1.125-1.125zM0 6c0-0.621 0.504-1.125 1.125-1.125s1.125 0.504 1.125 1.125c0 0.621-0.504 1.125-1.125 1.125s-1.125-0.504-1.125-1.125zM9.75 6c0-0.621 0.504-1.125 1.125-1.125s1.125 0.504 1.125 1.125c0 0.621-0.504 1.125-1.125 1.125s-1.125-0.504-1.125-1.125zM1.428 2.553c0-0.621 0.504-1.125 1.125-1.125s1.125 0.504 1.125 1.125c0 0.621-0.504 1.125-1.125 1.125s-1.125-0.504-1.125-1.125zM8.322 9.447c0-0.621 0.504-1.125 1.125-1.125s1.125 0.504 1.125 1.125c0 0.621-0.504 1.125-1.125 1.125s-1.125-0.504-1.125-1.125zM1.428 9.447c0-0.621 0.504-1.125 1.125-1.125s1.125 0.504 1.125 1.125c0 0.621-0.504 1.125-1.125 1.125s-1.125-0.504-1.125-1.125zM8.322 2.553c0-0.621 0.504-1.125 1.125-1.125s1.125 0.504 1.125 1.125c0 0.621-0.504 1.125-1.125 1.125s-1.125-0.504-1.125-1.125z"></path>
</svg>
