<!-- Generated by IcoMoon.io -->
<svg version="1.1" xmlns="http://www.w3.org/2000/svg" width="12" height="12" viewBox="0 0 12 12">
<title>spinner6</title>
<path d="M6 0c-3.267 0-5.923 2.61-5.998 5.859 0.069-2.834 2.225-5.109 4.873-5.109 2.692 0 4.875 2.351 4.875 5.25 0 0.621 0.504 1.125 1.125 1.125s1.125-0.504 1.125-1.125c0-3.314-2.686-6-6-6zM6 12c3.267 0 5.923-2.61 5.998-5.859-0.069 2.834-2.225 5.109-4.873 5.109-2.692 0-4.875-2.351-4.875-5.25 0-0.621-0.504-1.125-1.125-1.125s-1.125 0.504-1.125 1.125c0 3.314 2.686 6 6 6z"></path>
</svg>
