<!-- Generated by IcoMoon.io -->
<svg version="1.1" xmlns="http://www.w3.org/2000/svg" width="12" height="12" viewBox="0 0 12 12">
<title>spinner</title>
<path d="M4.5 1.5c0-0.828 0.672-1.5 1.5-1.5s1.5 0.672 1.5 1.5c0 0.828-0.672 1.5-1.5 1.5s-1.5-0.672-1.5-1.5zM7.682 2.818c0-0.828 0.672-1.5 1.5-1.5s1.5 0.672 1.5 1.5c0 0.828-0.672 1.5-1.5 1.5s-1.5-0.672-1.5-1.5zM9.75 6c0-0.414 0.336-0.75 0.75-0.75s0.75 0.336 0.75 0.75c0 0.414-0.336 0.75-0.75 0.75s-0.75-0.336-0.75-0.75zM8.432 9.182c0-0.414 0.336-0.75 0.75-0.75s0.75 0.336 0.75 0.75c0 0.414-0.336 0.75-0.75 0.75s-0.75-0.336-0.75-0.75zM5.25 10.5c0 0 0 0 0 0 0-0.414 0.336-0.75 0.75-0.75s0.75 0.336 0.75 0.75c0 0 0 0 0 0 0 0.414-0.336 0.75-0.75 0.75s-0.75-0.336-0.75-0.75zM2.068 9.182c0 0 0 0 0 0 0-0.414 0.336-0.75 0.75-0.75s0.75 0.336 0.75 0.75c0 0 0 0 0 0 0 0.414-0.336 0.75-0.75 0.75s-0.75-0.336-0.75-0.75zM1.693 2.818c0 0 0 0 0 0 0-0.621 0.504-1.125 1.125-1.125s1.125 0.504 1.125 1.125c0 0 0 0 0 0 0 0.621-0.504 1.125-1.125 1.125s-1.125-0.504-1.125-1.125zM0.656 6c0-0.466 0.378-0.844 0.844-0.844s0.844 0.378 0.844 0.844c0 0.466-0.378 0.844-0.844 0.844s-0.844-0.378-0.844-0.844z"></path>
</svg>
