<!-- Generated by IcoMoon.io -->
<svg version="1.1" xmlns="http://www.w3.org/2000/svg" width="12" height="12" viewBox="0 0 12 12">
<title>spinner3</title>
<path d="M6 3.552c-0.386 0-0.699-0.313-0.699-0.699v-2.098c0-0.386 0.313-0.699 0.699-0.699s0.699 0.313 0.699 0.699v2.098c0 0.386-0.313 0.699-0.699 0.699z"></path>
<path d="M6 11.683c-0.241 0-0.437-0.196-0.437-0.437v-2.098c0-0.241 0.196-0.437 0.437-0.437s0.437 0.196 0.437 0.437v2.098c0 0.241-0.196 0.437-0.437 0.437z"></path>
<path d="M4.427 3.93c-0.227 0-0.447-0.118-0.569-0.328l-1.049-1.817c-0.181-0.314-0.074-0.715 0.24-0.896s0.715-0.074 0.896 0.24l1.049 1.817c0.181 0.314 0.074 0.715-0.24 0.896-0.103 0.060-0.216 0.088-0.327 0.088z"></path>
<path d="M8.623 10.937c-0.136 0-0.268-0.071-0.341-0.197l-1.049-1.817c-0.109-0.188-0.044-0.429 0.144-0.537s0.429-0.044 0.537 0.144l1.049 1.817c0.109 0.188 0.044 0.429-0.144 0.537-0.062 0.036-0.13 0.053-0.196 0.053z"></path>
<path d="M3.274 5.038c-0.104 0-0.209-0.026-0.305-0.082l-1.817-1.049c-0.293-0.169-0.393-0.543-0.224-0.836s0.543-0.393 0.836-0.224l1.817 1.049c0.293 0.169 0.393 0.543 0.224 0.836-0.113 0.196-0.319 0.306-0.531 0.306z"></path>
<path d="M10.543 8.973c-0.059 0-0.119-0.015-0.175-0.047l-1.817-1.049c-0.167-0.097-0.225-0.31-0.128-0.478s0.311-0.225 0.478-0.128l1.817 1.049c0.167 0.097 0.225 0.31 0.128 0.478-0.065 0.112-0.182 0.175-0.303 0.175z"></path>
<path d="M2.852 6.568h-2.098c-0.314 0-0.568-0.254-0.568-0.568s0.254-0.568 0.568-0.568h2.098c0.314 0 0.568 0.254 0.568 0.568s-0.254 0.568-0.568 0.568z"></path>
<path d="M11.246 6.35c-0 0 0 0 0 0h-2.098c-0.193-0-0.35-0.157-0.35-0.35s0.157-0.35 0.35-0.35c0 0 0 0 0 0h2.098c0.193 0 0.35 0.157 0.35 0.35s-0.157 0.35-0.35 0.35z"></path>
<path d="M1.457 9.148c-0.181 0-0.358-0.094-0.455-0.262-0.145-0.251-0.059-0.572 0.192-0.717l1.817-1.049c0.251-0.145 0.572-0.059 0.717 0.192s0.059 0.572-0.192 0.717l-1.817 1.049c-0.083 0.048-0.173 0.070-0.262 0.070z"></path>
<path d="M8.726 4.776c-0.121 0-0.238-0.063-0.303-0.175-0.097-0.167-0.039-0.381 0.128-0.478l1.817-1.049c0.167-0.097 0.381-0.039 0.478 0.128s0.039 0.381-0.128 0.478l-1.817 1.049c-0.055 0.032-0.115 0.047-0.175 0.047z"></path>
<path d="M3.377 11.024c-0.082 0-0.164-0.021-0.24-0.065-0.23-0.133-0.309-0.427-0.176-0.657l1.049-1.817c0.133-0.23 0.427-0.309 0.657-0.176s0.309 0.427 0.176 0.657l-1.049 1.817c-0.089 0.154-0.251 0.241-0.417 0.241z"></path>
<path d="M7.573 3.624c-0.059 0-0.119-0.015-0.175-0.047-0.167-0.097-0.225-0.31-0.128-0.478l1.049-1.817c0.097-0.167 0.31-0.225 0.478-0.128s0.225 0.31 0.128 0.478l-1.049 1.817c-0.065 0.112-0.182 0.175-0.303 0.175z"></path>
</svg>
