<!-- Generated by IcoMoon.io -->
<svg version="1.1" xmlns="http://www.w3.org/2000/svg" width="12" height="12" viewBox="0 0 12 12">
<title>spinner7</title>
<path d="M0 6.019l-0 0c0 0 0 0.001 0 0.003 0.001 0.045 0.006 0.090 0.015 0.133 0.002 0.020 0.005 0.043 0.008 0.068 0.003 0.022 0.005 0.046 0.008 0.071 0.004 0.030 0.009 0.062 0.014 0.096 0.010 0.067 0.021 0.142 0.034 0.222 0.016 0.076 0.033 0.157 0.051 0.245 0.008 0.044 0.021 0.088 0.033 0.134s0.024 0.093 0.037 0.141c0.007 0.024 0.012 0.048 0.020 0.073s0.015 0.049 0.023 0.074 0.032 0.1 0.048 0.152c0.004 0.013 0.008 0.026 0.012 0.039s0.010 0.026 0.014 0.039 0.019 0.052 0.029 0.079 0.040 0.106 0.061 0.161c0.023 0.054 0.047 0.108 0.070 0.163 0.012 0.028 0.024 0.055 0.036 0.083s0.027 0.055 0.040 0.083 0.055 0.111 0.083 0.168c0.029 0.056 0.061 0.111 0.092 0.168 0.016 0.028 0.031 0.056 0.047 0.085s0.034 0.056 0.051 0.084 0.069 0.112 0.105 0.168c0.148 0.221 0.313 0.44 0.495 0.648 0.184 0.206 0.384 0.401 0.594 0.581 0.213 0.177 0.437 0.339 0.665 0.482 0.23 0.141 0.465 0.261 0.696 0.365 0.059 0.024 0.117 0.048 0.174 0.071 0.029 0.011 0.057 0.024 0.086 0.034s0.058 0.020 0.086 0.030 0.113 0.041 0.17 0.059c0.057 0.017 0.113 0.033 0.168 0.050 0.028 0.008 0.055 0.017 0.082 0.024s0.055 0.013 0.082 0.020 0.107 0.026 0.159 0.039c0.053 0.010 0.105 0.020 0.156 0.030 0.025 0.005 0.051 0.010 0.075 0.014 0.012 0.002 0.025 0.005 0.037 0.007s0.025 0.003 0.037 0.005c0.049 0.007 0.097 0.014 0.144 0.020 0.023 0.003 0.047 0.006 0.069 0.010s0.046 0.004 0.068 0.007 0.088 0.008 0.131 0.011c0.042 0.004 0.083 0.008 0.123 0.009 0.003 0 0.005 0 0.008 0 0.007 0.408 0.34 0.736 0.75 0.736 0.006 0 0.013-0 0.019-0v0c0 0 0.001-0 0.003-0 0.045-0.001 0.090-0.006 0.133-0.015 0.020-0.002 0.043-0.005 0.068-0.008 0.022-0.003 0.046-0.005 0.071-0.008 0.030-0.004 0.062-0.009 0.096-0.014 0.067-0.010 0.142-0.021 0.222-0.034 0.076-0.016 0.157-0.033 0.245-0.051 0.044-0.008 0.088-0.021 0.134-0.033s0.093-0.024 0.141-0.037c0.024-0.007 0.048-0.012 0.073-0.020s0.049-0.015 0.074-0.023 0.1-0.032 0.152-0.048c0.013-0.004 0.026-0.008 0.039-0.012s0.026-0.010 0.039-0.014 0.052-0.019 0.079-0.029 0.106-0.040 0.161-0.061c0.054-0.023 0.108-0.047 0.163-0.070 0.028-0.012 0.055-0.024 0.083-0.036s0.055-0.027 0.083-0.040 0.111-0.055 0.168-0.083c0.056-0.029 0.111-0.061 0.168-0.092 0.028-0.016 0.056-0.031 0.085-0.047s0.056-0.034 0.084-0.051 0.112-0.069 0.168-0.105c0.221-0.148 0.44-0.313 0.648-0.495 0.206-0.184 0.401-0.384 0.581-0.594 0.177-0.213 0.339-0.437 0.482-0.665 0.141-0.23 0.261-0.465 0.365-0.696 0.024-0.059 0.048-0.117 0.071-0.174 0.011-0.029 0.024-0.057 0.034-0.086s0.020-0.058 0.030-0.086 0.041-0.113 0.059-0.17c0.017-0.057 0.033-0.113 0.050-0.168 0.008-0.028 0.017-0.055 0.024-0.082s0.013-0.055 0.020-0.082 0.026-0.107 0.039-0.159c0.010-0.053 0.020-0.105 0.030-0.156 0.005-0.025 0.010-0.050 0.014-0.075 0.002-0.012 0.005-0.025 0.007-0.037s0.003-0.025 0.005-0.037c0.007-0.049 0.014-0.097 0.020-0.144 0.003-0.023 0.006-0.047 0.010-0.069s0.004-0.046 0.007-0.068 0.008-0.088 0.011-0.131c0.004-0.042 0.008-0.083 0.009-0.123 0-0.006 0-0.012 0.001-0.018 0.413-0.002 0.747-0.337 0.747-0.75 0-0.006-0-0.013-0-0.019h0c0 0-0-0.001-0-0.003-0.001-0.045-0.006-0.090-0.015-0.133-0.002-0.020-0.005-0.043-0.008-0.068-0.003-0.022-0.005-0.046-0.008-0.071-0.004-0.030-0.009-0.062-0.014-0.096-0.010-0.067-0.021-0.142-0.034-0.222-0.016-0.076-0.033-0.157-0.051-0.244-0.008-0.044-0.021-0.088-0.033-0.134s-0.024-0.093-0.037-0.141c-0.007-0.024-0.012-0.048-0.020-0.073s-0.015-0.049-0.023-0.074-0.032-0.1-0.048-0.152c-0.004-0.013-0.008-0.026-0.012-0.039s-0.010-0.026-0.014-0.039-0.019-0.052-0.029-0.079-0.040-0.106-0.061-0.161c-0.023-0.054-0.047-0.108-0.070-0.163-0.012-0.028-0.024-0.055-0.036-0.083s-0.027-0.055-0.040-0.083-0.055-0.111-0.083-0.168c-0.029-0.056-0.061-0.111-0.092-0.168-0.016-0.028-0.031-0.056-0.047-0.085s-0.034-0.056-0.051-0.084-0.069-0.112-0.105-0.168c-0.148-0.221-0.313-0.44-0.495-0.648-0.184-0.206-0.384-0.401-0.594-0.581-0.213-0.177-0.437-0.339-0.665-0.482-0.23-0.141-0.465-0.261-0.696-0.365-0.059-0.024-0.117-0.048-0.174-0.071-0.029-0.011-0.057-0.024-0.086-0.034s-0.058-0.020-0.086-0.030-0.113-0.041-0.17-0.059c-0.057-0.017-0.113-0.033-0.168-0.050-0.028-0.008-0.055-0.017-0.082-0.024s-0.055-0.013-0.082-0.020-0.107-0.026-0.159-0.039c-0.053-0.010-0.105-0.020-0.156-0.030-0.025-0.005-0.051-0.010-0.075-0.014-0.012-0.002-0.025-0.005-0.037-0.007s-0.025-0.003-0.037-0.005c-0.049-0.007-0.097-0.014-0.144-0.020-0.023-0.003-0.047-0.006-0.069-0.010s-0.046-0.004-0.068-0.007-0.088-0.008-0.131-0.011c-0.042-0.004-0.083-0.008-0.123-0.009-0.010-0-0.020-0.001-0.029-0.001-0.008-0.408-0.34-0.736-0.75-0.736-0.006 0-0.013 0-0.019 0l-0-0c0 0-0.001 0-0.003 0-0.045 0.001-0.090 0.006-0.133 0.015-0.020 0.002-0.043 0.005-0.068 0.008-0.022 0.003-0.046 0.005-0.071 0.008-0.030 0.004-0.062 0.009-0.096 0.014-0.067 0.010-0.142 0.021-0.222 0.034-0.076 0.016-0.157 0.033-0.244 0.051-0.044 0.008-0.088 0.021-0.134 0.033s-0.093 0.024-0.141 0.037c-0.024 0.007-0.048 0.012-0.073 0.020s-0.049 0.015-0.074 0.023-0.1 0.032-0.152 0.048c-0.013 0.004-0.026 0.008-0.039 0.012s-0.026 0.010-0.039 0.014-0.052 0.019-0.079 0.029-0.106 0.040-0.161 0.061c-0.054 0.023-0.108 0.047-0.163 0.070-0.028 0.012-0.055 0.024-0.083 0.036s-0.055 0.027-0.083 0.040-0.111 0.055-0.168 0.083c-0.056 0.029-0.111 0.061-0.168 0.092-0.028 0.016-0.056 0.031-0.085 0.047s-0.056 0.034-0.084 0.051-0.112 0.069-0.168 0.105c-0.221 0.148-0.44 0.313-0.648 0.495-0.206 0.184-0.401 0.384-0.581 0.594-0.177 0.213-0.339 0.437-0.482 0.665-0.141 0.23-0.261 0.465-0.365 0.696-0.024 0.059-0.048 0.117-0.071 0.174-0.011 0.029-0.024 0.057-0.034 0.086s-0.020 0.058-0.030 0.086-0.041 0.113-0.059 0.17c-0.017 0.057-0.033 0.113-0.050 0.168-0.008 0.028-0.017 0.055-0.024 0.082s-0.013 0.055-0.020 0.082-0.026 0.107-0.039 0.159c-0.010 0.053-0.020 0.105-0.030 0.156-0.005 0.025-0.010 0.050-0.014 0.075-0.002 0.012-0.005 0.025-0.007 0.037s-0.003 0.025-0.005 0.037c-0.007 0.049-0.013 0.097-0.020 0.144-0.003 0.023-0.006 0.047-0.010 0.069s-0.004 0.046-0.007 0.068-0.008 0.088-0.011 0.131c-0.004 0.042-0.008 0.083-0.009 0.123-0 0.006-0 0.013-0.001 0.019-0.403 0.013-0.725 0.343-0.725 0.749 0 0.006 0 0.013 0 0.019zM0.862 5.258c0-0.002 0.001-0.005 0.001-0.007 0.008-0.038 0.019-0.077 0.030-0.117s0.022-0.081 0.034-0.123c0.006-0.021 0.011-0.042 0.018-0.063s0.014-0.043 0.021-0.064 0.029-0.087 0.044-0.132c0.004-0.011 0.007-0.023 0.011-0.034s0.009-0.022 0.013-0.034 0.018-0.045 0.026-0.068 0.036-0.092 0.054-0.14c0.021-0.046 0.042-0.094 0.063-0.142 0.011-0.024 0.021-0.048 0.032-0.072s0.024-0.048 0.036-0.072 0.049-0.096 0.074-0.145c0.026-0.049 0.055-0.096 0.082-0.145 0.014-0.024 0.028-0.049 0.042-0.073s0.030-0.048 0.045-0.072 0.062-0.096 0.093-0.145c0.132-0.191 0.277-0.38 0.437-0.558 0.163-0.177 0.338-0.345 0.523-0.499 0.187-0.152 0.383-0.289 0.582-0.41 0.201-0.119 0.405-0.221 0.606-0.308 0.051-0.020 0.102-0.040 0.152-0.059 0.025-0.010 0.049-0.020 0.075-0.029s0.050-0.017 0.075-0.025 0.098-0.034 0.147-0.049c0.049-0.014 0.097-0.027 0.145-0.041 0.024-0.006 0.047-0.014 0.071-0.019s0.047-0.011 0.071-0.016 0.093-0.021 0.138-0.031c0.046-0.008 0.090-0.016 0.134-0.024 0.022-0.004 0.044-0.008 0.065-0.011 0.011-0.002 0.021-0.004 0.032-0.006s0.021-0.003 0.032-0.004c0.042-0.005 0.084-0.010 0.124-0.015 0.020-0.003 0.040-0.005 0.060-0.008s0.039-0.003 0.059-0.005 0.076-0.006 0.113-0.008c0.036-0.003 0.072-0.006 0.106-0.006 0.069-0.002 0.133-0.003 0.192-0.004 0.055 0.002 0.105 0.004 0.15 0.005 0.022 0.001 0.044 0.001 0.064 0.002 0.025 0.002 0.048 0.003 0.070 0.004 0.025 0.002 0.048 0.003 0.068 0.004 0.038 0.006 0.077 0.009 0.117 0.009 0.005 0 0.011-0 0.016-0 0.002 0 0.003 0 0.003 0v-0c0.365-0.009 0.665-0.279 0.721-0.63 0.006 0.001 0.012 0.003 0.019 0.004 0.038 0.008 0.077 0.019 0.117 0.030s0.081 0.022 0.123 0.034c0.021 0.006 0.042 0.011 0.063 0.018s0.043 0.014 0.064 0.021 0.087 0.029 0.132 0.044c0.011 0.004 0.023 0.007 0.034 0.011s0.022 0.009 0.034 0.013 0.045 0.018 0.068 0.026 0.092 0.036 0.14 0.054c0.046 0.021 0.094 0.042 0.142 0.063 0.024 0.011 0.048 0.021 0.072 0.032s0.048 0.024 0.072 0.036 0.096 0.049 0.145 0.074c0.049 0.026 0.096 0.055 0.145 0.082 0.024 0.014 0.049 0.028 0.073 0.042s0.048 0.030 0.072 0.045 0.096 0.062 0.145 0.093c0.191 0.132 0.38 0.277 0.558 0.437 0.177 0.163 0.345 0.338 0.499 0.523 0.152 0.187 0.289 0.383 0.41 0.582 0.119 0.201 0.221 0.405 0.308 0.606 0.020 0.051 0.040 0.102 0.059 0.152 0.010 0.025 0.020 0.049 0.029 0.075s0.017 0.050 0.025 0.075 0.034 0.098 0.049 0.147c0.014 0.049 0.027 0.097 0.041 0.145 0.006 0.024 0.014 0.047 0.019 0.071s0.011 0.047 0.016 0.071 0.021 0.093 0.032 0.138c0.008 0.046 0.016 0.090 0.024 0.134 0.004 0.022 0.008 0.044 0.011 0.065 0.002 0.011 0.004 0.021 0.006 0.032s0.003 0.021 0.004 0.032c0.005 0.042 0.010 0.084 0.015 0.124 0.003 0.020 0.005 0.040 0.008 0.060s0.003 0.039 0.005 0.059 0.006 0.076 0.008 0.113c0.003 0.036 0.006 0.072 0.006 0.106 0.002 0.069 0.003 0.133 0.004 0.192-0.002 0.055-0.004 0.105-0.005 0.15-0.001 0.022-0.001 0.044-0.002 0.064-0.002 0.025-0.003 0.048-0.004 0.070-0.002 0.025-0.003 0.048-0.004 0.068-0.006 0.038-0.009 0.077-0.009 0.117 0 0.005 0 0.011 0 0.016-0 0.002-0 0.003-0 0.003h0c0.009 0.361 0.272 0.658 0.617 0.719-0.001 0.003-0.002 0.007-0.002 0.010-0.008 0.038-0.019 0.077-0.030 0.117s-0.022 0.081-0.034 0.123c-0.006 0.021-0.011 0.042-0.018 0.063s-0.014 0.043-0.021 0.064-0.029 0.087-0.044 0.132c-0.004 0.011-0.007 0.023-0.011 0.034s-0.009 0.022-0.013 0.034-0.018 0.045-0.026 0.068-0.036 0.092-0.054 0.14c-0.021 0.046-0.042 0.094-0.063 0.142-0.011 0.024-0.021 0.048-0.032 0.072s-0.024 0.048-0.036 0.072-0.049 0.096-0.074 0.145c-0.026 0.049-0.055 0.096-0.082 0.145-0.014 0.024-0.028 0.049-0.042 0.073s-0.030 0.048-0.045 0.072-0.062 0.096-0.093 0.145c-0.132 0.191-0.277 0.38-0.437 0.558-0.163 0.177-0.338 0.345-0.523 0.499-0.187 0.152-0.383 0.289-0.582 0.41-0.201 0.119-0.405 0.221-0.606 0.308-0.051 0.020-0.102 0.040-0.152 0.059-0.025 0.010-0.049 0.020-0.075 0.029s-0.050 0.017-0.075 0.025-0.098 0.034-0.147 0.049c-0.049 0.014-0.097 0.027-0.145 0.041-0.024 0.006-0.047 0.014-0.071 0.019s-0.047 0.011-0.071 0.016-0.093 0.021-0.138 0.032c-0.046 0.008-0.090 0.016-0.134 0.024-0.022 0.004-0.044 0.008-0.065 0.011-0.011 0.002-0.021 0.004-0.032 0.006s-0.021 0.003-0.032 0.004c-0.042 0.005-0.084 0.010-0.124 0.015-0.020 0.003-0.040 0.005-0.060 0.008s-0.039 0.003-0.059 0.005-0.076 0.006-0.113 0.008c-0.036 0.003-0.072 0.006-0.106 0.006-0.069 0.002-0.133 0.003-0.192 0.004-0.055-0.002-0.105-0.004-0.15-0.005-0.022-0.001-0.044-0.001-0.064-0.002-0.025-0.002-0.048-0.003-0.070-0.004-0.025-0.002-0.048-0.003-0.068-0.004-0.038-0.006-0.077-0.009-0.117-0.009-0.005 0-0.011 0-0.016 0-0.002-0-0.003-0-0.003-0v0c-0.363 0.009-0.662 0.276-0.721 0.625-0.037-0.008-0.076-0.019-0.115-0.030s-0.081-0.022-0.123-0.034c-0.021-0.006-0.042-0.011-0.063-0.018s-0.043-0.014-0.064-0.021-0.087-0.029-0.132-0.044c-0.011-0.004-0.023-0.007-0.034-0.011s-0.022-0.009-0.034-0.013-0.045-0.018-0.068-0.026-0.092-0.036-0.14-0.054c-0.046-0.021-0.094-0.042-0.142-0.063-0.024-0.011-0.048-0.021-0.072-0.032s-0.048-0.024-0.072-0.036-0.096-0.049-0.145-0.074c-0.049-0.026-0.096-0.055-0.145-0.082-0.024-0.014-0.049-0.028-0.073-0.042s-0.048-0.030-0.072-0.045-0.096-0.062-0.145-0.093c-0.191-0.132-0.38-0.277-0.558-0.437-0.177-0.163-0.345-0.338-0.499-0.523-0.151-0.187-0.289-0.383-0.41-0.582-0.119-0.201-0.221-0.405-0.308-0.606-0.020-0.051-0.040-0.102-0.059-0.152-0.010-0.025-0.020-0.049-0.029-0.075s-0.017-0.050-0.025-0.075-0.034-0.098-0.049-0.147c-0.014-0.049-0.027-0.097-0.041-0.145-0.006-0.024-0.014-0.047-0.019-0.071s-0.011-0.047-0.016-0.071-0.021-0.093-0.031-0.138c-0.008-0.046-0.016-0.090-0.024-0.134-0.004-0.022-0.008-0.044-0.011-0.065-0.002-0.011-0.004-0.021-0.006-0.032s-0.003-0.021-0.004-0.032c-0.005-0.042-0.010-0.084-0.015-0.124-0.003-0.020-0.005-0.040-0.008-0.060s-0.003-0.039-0.005-0.059-0.006-0.076-0.008-0.113c-0.003-0.036-0.006-0.072-0.006-0.106-0.002-0.069-0.003-0.133-0.004-0.192 0.002-0.055 0.004-0.105 0.005-0.15 0.001-0.022 0.001-0.044 0.002-0.064 0.002-0.025 0.003-0.048 0.004-0.070 0.002-0.025 0.003-0.048 0.004-0.068 0.006-0.038 0.009-0.077 0.009-0.117 0-0.005-0-0.011-0-0.016 0-0.002 0-0.003 0-0.003h-0c-0.009-0.368-0.283-0.67-0.638-0.723z"></path>
</svg>
