<!-- Generated by IcoMoon.io -->
<svg version="1.1" xmlns="http://www.w3.org/2000/svg" width="12" height="12" viewBox="0 0 12 12">
<title>spinner4</title>
<path d="M4.5 1.5c0-0.828 0.672-1.5 1.5-1.5s1.5 0.672 1.5 1.5c0 0.828-0.672 1.5-1.5 1.5s-1.5-0.672-1.5-1.5zM9.269 6c0 0 0 0 0 0 0-0.68 0.551-1.231 1.231-1.231s1.231 0.551 1.231 1.231c0 0 0 0 0 0 0 0.68-0.551 1.231-1.231 1.231s-1.231-0.551-1.231-1.231zM8.067 9.182c0-0.616 0.499-1.115 1.115-1.115s1.115 0.499 1.115 1.115c0 0.616-0.499 1.115-1.115 1.115s-1.115-0.499-1.115-1.115zM4.991 10.5c0-0.557 0.452-1.009 1.009-1.009s1.009 0.452 1.009 1.009c0 0.557-0.452 1.009-1.009 1.009s-1.009-0.452-1.009-1.009zM1.904 9.182c0-0.505 0.409-0.914 0.914-0.914s0.914 0.409 0.914 0.914c0 0.505-0.409 0.914-0.914 0.914s-0.914-0.409-0.914-0.914zM0.672 6c0-0.457 0.371-0.828 0.828-0.828s0.828 0.371 0.828 0.828c0 0.457-0.371 0.828-0.828 0.828s-0.828-0.371-0.828-0.828zM2.068 2.818c0 0 0 0 0 0 0-0.414 0.336-0.75 0.75-0.75s0.75 0.336 0.75 0.75c0 0 0 0 0 0 0 0.414-0.336 0.75-0.75 0.75s-0.75-0.336-0.75-0.75zM10.541 2.818c0 0.75-0.608 1.359-1.359 1.359s-1.359-0.608-1.359-1.359c0-0.75 0.608-1.359 1.359-1.359s1.359 0.608 1.359 1.359z"></path>
</svg>
